<svg width="69" height="61" viewBox="0 0 69 61" fill="none" xmlns="http://www.w3.org/2000/svg">
<path d="M68.5977 26.3826C68.5973 45.7642 44.5886 54.71 27.4395 60.6736L27.4395 50.2371C20.1622 50.2371 13.1829 47.7234 8.03711 43.2498C2.89145 38.7762 0.000113011 32.7091 -1.15324e-06 26.3826C-1.12805e-06 25.8063 0.0257481 25.2319 0.0732411 24.6609C-0.409158 18.2202 1.57391 11.5952 6.02637 6.66676C13.7948 -1.92455 26.2212 -2.21283 34.3018 5.80153C42.3583 -2.20157 54.8087 -1.93586 62.5703 6.66676C67.0249 11.6085 69.0095 18.2318 68.5264 24.6687C68.5734 25.2371 68.5977 25.809 68.5977 26.3826Z" fill="#FF5777"/>
<path d="M21 13V41.2897H35.8893" stroke="#F1F6F6" stroke-width="4" stroke-linecap="round" stroke-linejoin="round"/>
<path d="M44 47.2897V19H58.8893" stroke="#202020" stroke-width="4" stroke-linecap="round" stroke-linejoin="round"/>
</svg>
