<svg width="36" height="36" viewBox="0 0 36 36" fill="none" xmlns="http://www.w3.org/2000/svg">
<path d="M35.8749 17.9999C35.8693 22.3686 34.2664 26.5845 31.3682 29.8535C28.4699 33.1224 24.4764 35.2188 20.1398 35.7477C20.0432 35.7586 19.9454 35.749 19.8529 35.7194C19.7603 35.6897 19.6751 35.6408 19.6028 35.5759C19.5305 35.5109 19.4729 35.4314 19.4336 35.3425C19.3943 35.2536 19.3743 35.1574 19.3749 35.0602V22.1249H23.4999C23.6884 22.1253 23.875 22.087 24.048 22.0122C24.2211 21.9375 24.3769 21.828 24.5059 21.6905C24.6348 21.553 24.7341 21.3905 24.7976 21.213C24.8611 21.0355 24.8874 20.8469 24.8749 20.6588C24.8445 20.3052 24.6814 19.9763 24.4184 19.7381C24.1553 19.4999 23.8118 19.3701 23.457 19.3749H19.3749V15.2499C19.3749 14.5205 19.6647 13.8211 20.1804 13.3054C20.6961 12.7896 21.3956 12.4999 22.1249 12.4999H24.8749C25.0634 12.5003 25.25 12.462 25.423 12.3872C25.5961 12.3125 25.7519 12.203 25.8809 12.0655C26.0098 11.928 26.1091 11.7655 26.1726 11.588C26.2361 11.4105 26.2624 11.2219 26.2499 11.0338C26.2195 10.6796 26.0559 10.3502 25.7921 10.1119C25.5283 9.8736 25.184 9.74424 24.8285 9.7499H22.1249C20.6662 9.7499 19.2673 10.3294 18.2358 11.3608C17.2044 12.3923 16.6249 13.7912 16.6249 15.2499V19.3749H12.4999C12.3114 19.3745 12.1249 19.4128 11.9518 19.4876C11.7788 19.5623 11.6229 19.6718 11.494 19.8093C11.365 19.9468 11.2657 20.1093 11.2022 20.2868C11.1387 20.4643 11.1124 20.6529 11.1249 20.841C11.1553 21.1952 11.3189 21.5246 11.5827 21.7629C11.8465 22.0012 12.1909 22.1305 12.5463 22.1249H16.6249V35.0636C16.6255 35.1607 16.6056 35.2567 16.5664 35.3455C16.5272 35.4342 16.4697 35.5137 16.3976 35.5786C16.3255 35.6435 16.2405 35.6925 16.1482 35.7222C16.0558 35.752 15.9582 35.7618 15.8618 35.7511C11.4091 35.2089 7.3223 33.0147 4.41024 29.6029C1.49818 26.1912 -0.0268712 21.8104 0.136953 17.3279C0.480703 8.04661 7.99851 0.501302 17.2866 0.140364C19.6913 0.0472183 22.0901 0.44003 24.3395 1.2953C26.5888 2.15058 28.6426 3.45074 30.3779 5.11803C32.1133 6.78532 33.4945 8.78547 34.439 10.9989C35.3835 13.2123 35.8719 15.5934 35.8749 17.9999Z" fill="black"/>
</svg>
