<svg width="36" height="36" viewBox="0 0 36 36" fill="none" xmlns="http://www.w3.org/2000/svg">
<path d="M23.5 18C23.5 19.0878 23.1774 20.1512 22.5731 21.0556C21.9687 21.9601 21.1098 22.6651 20.1048 23.0813C19.0998 23.4976 17.9939 23.6065 16.927 23.3943C15.8601 23.1821 14.8801 22.6583 14.1109 21.8891C13.3417 21.1199 12.8179 20.1399 12.6057 19.073C12.3935 18.0061 12.5024 16.9002 12.9187 15.8952C13.3349 14.8902 14.0399 14.0313 14.9444 13.4269C15.8488 12.8226 16.9122 12.5 18 12.5C19.4587 12.5 20.8576 13.0795 21.8891 14.1109C22.9205 15.1424 23.5 16.5413 23.5 18ZM35.875 9.75V26.25C35.8723 28.8019 34.8573 31.2484 33.0529 33.0529C31.2484 34.8573 28.8019 35.8723 26.25 35.875H9.75C7.19813 35.8723 4.75156 34.8573 2.94711 33.0529C1.14267 31.2484 0.12773 28.8019 0.125 26.25V9.75C0.12773 7.19813 1.14267 4.75156 2.94711 2.94711C4.75156 1.14267 7.19813 0.12773 9.75 0.125H26.25C28.8019 0.12773 31.2484 1.14267 33.0529 2.94711C34.8573 4.75156 35.8723 7.19813 35.875 9.75ZM26.25 18C26.25 16.3683 25.7661 14.7733 24.8596 13.4165C23.9531 12.0598 22.6646 11.0024 21.1571 10.378C19.6496 9.75357 17.9908 9.59019 16.3905 9.90852C14.7902 10.2269 13.3202 11.0126 12.1664 12.1664C11.0126 13.3202 10.2269 14.7902 9.90852 16.3905C9.59019 17.9908 9.75357 19.6496 10.378 21.1571C11.0024 22.6646 12.0598 23.9531 13.4165 24.8596C14.7733 25.7661 16.3683 26.25 18 26.25C20.1873 26.2477 22.2844 25.3778 23.8311 23.8311C25.3778 22.2844 26.2477 20.1873 26.25 18ZM30.375 7.6875C30.375 7.27958 30.254 6.88081 30.0274 6.54164C29.8008 6.20246 29.4787 5.9381 29.1018 5.782C28.7249 5.62589 28.3102 5.58505 27.9101 5.66463C27.51 5.74421 27.1425 5.94065 26.8541 6.22909C26.5656 6.51754 26.3692 6.88504 26.2896 7.28513C26.21 7.68521 26.2509 8.09991 26.407 8.47678C26.5631 8.85366 26.8275 9.17578 27.1666 9.40241C27.5058 9.62904 27.9046 9.75 28.3125 9.75C28.8595 9.75 29.3841 9.5327 29.7709 9.14591C30.1577 8.75911 30.375 8.23451 30.375 7.6875Z" fill="black"/>
</svg>
