<svg width="44" height="44" viewBox="0 0 44 44" fill="none" xmlns="http://www.w3.org/2000/svg">
<g clip-path="url(#clip0_257_723)">
<path d="M36.9531 37.7867C36.8347 38.0024 36.6606 38.1823 36.449 38.3078C36.2374 38.4332 35.9959 38.4996 35.7499 38.5H27.4999C27.2685 38.4999 27.0409 38.4414 26.8381 38.33C26.6353 38.2185 26.4639 38.0577 26.3398 37.8623L19.3806 26.9259L9.26744 38.0497C9.0209 38.3145 8.67992 38.4715 8.31842 38.4866C7.95692 38.5017 7.60403 38.3737 7.33627 38.1304C7.06851 37.887 6.90745 37.548 6.88801 37.1867C6.86857 36.8254 6.99233 36.471 7.23244 36.2003L17.8492 24.5128L7.08978 7.61406C6.95727 7.40617 6.88309 7.16647 6.87501 6.92007C6.86693 6.67366 6.92524 6.42962 7.04385 6.21349C7.16246 5.99736 7.33699 5.8171 7.54918 5.69157C7.76137 5.56605 8.0034 5.49988 8.24994 5.5H16.4999C16.7314 5.50007 16.959 5.55855 17.1618 5.67002C17.3646 5.78148 17.536 5.94233 17.6601 6.13766L24.6193 17.0741L34.7324 5.95031C34.979 5.68549 35.3199 5.5285 35.6814 5.5134C36.043 5.4983 36.3958 5.62629 36.6636 5.86963C36.9314 6.11297 37.0924 6.45204 37.1119 6.81333C37.1313 7.17463 37.0075 7.52903 36.7674 7.79969L26.1507 19.4786L36.9101 36.3877C37.0419 36.5956 37.1154 36.8352 37.1229 37.0813C37.1305 37.3274 37.0718 37.571 36.9531 37.7867Z" fill="black"/>
</g>
<defs>
<clipPath id="clip0_257_723">
<rect width="44" height="44" fill="white"/>
</clipPath>
</defs>
</svg>
