<svg width="80" height="80" viewBox="0 0 80 80" fill="none" xmlns="http://www.w3.org/2000/svg">
<g clip-path="url(#clip0_257_756)">
<path d="M77.5 47.5C77.5 48.163 77.2366 48.7989 76.7678 49.2678C76.2989 49.7366 75.663 50 75 50H70V55C70 55.663 69.7366 56.2989 69.2678 56.7678C68.7989 57.2366 68.163 57.5 67.5 57.5C66.8369 57.5 66.2011 57.2366 65.7322 56.7678C65.2634 56.2989 65 55.663 65 55V50H60C59.3369 50 58.7011 49.7366 58.2322 49.2678C57.7634 48.7989 57.5 48.163 57.5 47.5C57.5 46.837 57.7634 46.2011 58.2322 45.7322C58.7011 45.2634 59.3369 45 60 45H65V40C65 39.337 65.2634 38.7011 65.7322 38.2322C66.2011 37.7634 66.8369 37.5 67.5 37.5C68.163 37.5 68.7989 37.7634 69.2678 38.2322C69.7366 38.7011 70 39.337 70 40V45H75C75.663 45 76.2989 45.2634 76.7678 45.7322C77.2366 46.2011 77.5 46.837 77.5 47.5ZM17.5 22.5H22.5V27.5C22.5 28.163 22.7634 28.7989 23.2322 29.2678C23.7011 29.7366 24.3369 30 25 30C25.663 30 26.2989 29.7366 26.7678 29.2678C27.2366 28.7989 27.5 28.163 27.5 27.5V22.5H32.5C33.163 22.5 33.7989 22.2366 34.2678 21.7678C34.7366 21.2989 35 20.663 35 20C35 19.337 34.7366 18.7011 34.2678 18.2322C33.7989 17.7634 33.163 17.5 32.5 17.5H27.5V12.5C27.5 11.837 27.2366 11.2011 26.7678 10.7322C26.2989 10.2634 25.663 10 25 10C24.3369 10 23.7011 10.2634 23.2322 10.7322C22.7634 11.2011 22.5 11.837 22.5 12.5V17.5H17.5C16.8369 17.5 16.2011 17.7634 15.7322 18.2322C15.2634 18.7011 15 19.337 15 20C15 20.663 15.2634 21.2989 15.7322 21.7678C16.2011 22.2366 16.8369 22.5 17.5 22.5ZM57.5 60H55V57.5C55 56.837 54.7366 56.2011 54.2678 55.7322C53.7989 55.2634 53.163 55 52.5 55C51.8369 55 51.2011 55.2634 50.7322 55.7322C50.2634 56.2011 50 56.837 50 57.5V60H47.5C46.8369 60 46.2011 60.2634 45.7322 60.7322C45.2634 61.2011 45 61.837 45 62.5C45 63.163 45.2634 63.7989 45.7322 64.2678C46.2011 64.7366 46.8369 65 47.5 65H50V67.5C50 68.163 50.2634 68.7989 50.7322 69.2678C51.2011 69.7366 51.8369 70 52.5 70C53.163 70 53.7989 69.7366 54.2678 69.2678C54.7366 68.7989 55 68.163 55 67.5V65H57.5C58.163 65 58.7989 64.7366 59.2678 64.2678C59.7366 63.7989 60 63.163 60 62.5C60 61.837 59.7366 61.2011 59.2678 60.7322C58.7989 60.2634 58.163 60 57.5 60ZM68.5344 25L25 68.5344C24.0624 69.4713 22.7911 69.9977 21.4656 69.9977C20.1401 69.9977 18.8688 69.4713 17.9312 68.5344L11.4625 62.0719C10.9981 61.6076 10.6297 61.0563 10.3783 60.4496C10.127 59.8429 9.99762 59.1926 9.99762 58.5359C9.99762 57.8792 10.127 57.229 10.3783 56.6223C10.6297 56.0156 10.9981 55.4643 11.4625 55L55 11.4656C55.4643 11.0012 56.0155 10.6328 56.6222 10.3815C57.2289 10.1301 57.8792 10.0008 58.5359 10.0008C59.1926 10.0008 59.8429 10.1301 60.4496 10.3815C61.0563 10.6328 61.6076 11.0012 62.0719 11.4656L68.5344 17.9281C68.9988 18.3924 69.3672 18.9437 69.6185 19.5504C69.8699 20.1571 69.9992 20.8074 69.9992 21.4641C69.9992 22.1208 69.8699 22.771 69.6185 23.3777C69.3672 23.9844 68.9988 24.5357 68.5344 25ZM65 21.4656L58.5344 15L48.5344 25L55 31.4656L65 21.4656Z" fill="black"/>
</g>
<defs>
<clipPath id="clip0_257_756">
<rect width="80" height="80" fill="white"/>
</clipPath>
</defs>
</svg>
