<svg width="80" height="80" viewBox="0 0 80 80" fill="none" xmlns="http://www.w3.org/2000/svg">
<g clip-path="url(#clip0_257_766)">
<path d="M33.7158 25.1745C34.3663 25.7266 34.9991 26.2953 35.625 26.875C35.7178 26.9558 35.8107 27.0365 35.9063 27.1197C36.7675 27.9069 37.3788 28.8898 38.0236 29.8535C38.6493 30.9279 38.6493 30.9279 39.5312 31.7187C39.9801 31.797 39.9801 31.797 40.4687 31.7187C41.0354 31.2195 41.4428 30.6841 41.8457 30.0488C44.6703 25.738 48.8432 22.7361 53.8922 21.6418C58.5085 20.8831 63.1605 21.6943 67.0307 24.3714C70.3294 26.7475 72.0389 30.1513 72.8125 34.0625C73.0119 35.294 73.0067 36.5386 73.0078 37.7832C73.0079 37.8904 73.008 37.9975 73.0081 38.108C73.0053 39.9199 72.8811 41.6631 72.5 43.4375C72.474 43.5614 72.448 43.6853 72.4212 43.813C71.0111 50.3595 67.9094 56.7219 63.4375 61.7187C63.3118 61.8615 63.1861 62.0043 63.0566 62.1515C62.448 62.8372 61.823 63.4974 61.1682 64.1388C60.9136 64.3904 60.9136 64.3904 60.6347 64.7656C60.2764 65.2 59.8849 65.5398 59.4574 65.9045C59.0568 66.255 58.6686 66.6159 58.2808 66.9803C57.2724 67.9278 56.2426 68.8293 55.1562 69.6875C54.9172 69.8784 54.9172 69.8784 54.6734 70.0732C51.233 72.8109 47.6681 75.3985 43.9478 77.7434C43.5408 78.0024 43.1374 78.2668 42.7337 78.5309C42.4378 78.7212 42.1418 78.9115 41.8457 79.1015C41.6381 79.2389 41.6381 79.2389 41.4263 79.3791C40.4595 79.992 40.4595 79.992 39.8278 80.0262C39.2011 79.7737 38.6592 79.443 38.0957 79.0722C37.9694 78.9908 37.8431 78.9093 37.713 78.8254C37.276 78.542 36.841 78.2556 36.4062 77.9687C36.2387 77.8585 36.0711 77.7483 35.8985 77.6348C32.9257 75.6777 29.9985 73.6768 27.1868 71.4923C26.8913 71.2627 26.5951 71.0341 26.2988 70.8056C25.3731 70.0886 24.4646 69.3542 23.5742 68.5937C23.494 68.5253 23.4138 68.4569 23.3311 68.3865C21.8193 67.082 20.3701 65.7118 18.9586 64.3001C18.7199 64.0617 18.48 63.8247 18.24 63.5876C17.2462 62.5995 16.3336 61.5739 15.4687 60.4687C15.3968 60.378 15.3248 60.2872 15.2507 60.1937C10.3838 53.9953 6.99911 45.9245 6.99214 37.9883C6.99204 37.8805 6.99193 37.7727 6.99182 37.6616C6.99875 33.1955 8.18274 28.9511 11.3281 25.6348C17.4073 19.9928 27.3498 20.031 33.7158 25.1745ZM13.0224 28.3553C12.4945 28.9548 12.0956 29.6116 11.7187 30.3125C11.6472 30.4372 11.5757 30.5618 11.502 30.6903C10.3148 32.8757 9.98817 35.3771 9.95113 37.832C9.94836 37.9431 9.94559 38.0541 9.94273 38.1685C9.94373 38.8601 10.0487 39.292 10.4687 39.8437C10.8659 40.1451 11.0599 40.1576 11.5625 40.1367C12.1106 39.9768 12.2983 39.8141 12.6562 39.375C12.7596 38.9806 12.7596 38.9806 12.7636 38.5474C12.7768 38.3051 12.7768 38.3051 12.7903 38.058C12.7976 37.8868 12.8049 37.7155 12.8125 37.5391C12.9859 34.777 13.465 31.8874 15.4699 29.8022C17.4788 28.0534 20.048 27.2802 22.6757 27.2851C22.8882 27.2855 22.8882 27.2855 23.105 27.2859C26.6195 27.349 29.4681 28.969 31.8994 31.4355C32.5923 32.1818 33.1417 32.9736 33.6651 33.8464C33.9733 34.3224 34.2022 34.6221 34.7363 34.8242C35.3102 34.8509 35.615 34.6835 36.0937 34.375C36.3967 33.993 36.4111 33.8124 36.3726 33.3258C36.2284 32.7225 35.9648 32.267 35.625 31.7578C35.5623 31.6624 35.4997 31.567 35.4352 31.4687C34.8463 30.5922 34.1731 29.8194 33.4375 29.0625C33.2915 28.9021 33.2915 28.9021 33.1427 28.7384C30.5236 25.9436 26.8673 24.6367 23.125 24.375C19.3631 24.2683 15.6201 25.6031 13.0224 28.3553ZM45.9521 29.6075C45.4437 30.1663 45.0024 30.7611 44.58 31.3867C44.5159 31.4814 44.4519 31.5761 44.3858 31.6737C43.9247 32.3915 43.5131 33.1502 43.6718 34.0234C43.9992 34.5146 44.2853 34.6612 44.8437 34.8437C45.3609 34.7899 45.6476 34.6751 46.0046 34.2908C46.2551 33.9617 46.4877 33.6243 46.7187 33.2812C48.8676 30.1603 51.4255 28.2093 55.1422 27.4011C58.3452 27.0205 61.2987 27.5221 63.9984 29.3341C66.027 30.9536 66.8032 33.6025 67.098 36.0767C67.1556 36.614 67.1959 37.1493 67.2186 37.6892C67.2259 37.8482 67.2259 37.8482 67.2334 38.0103C67.2453 38.3031 67.2526 38.5962 67.2595 38.8891C67.3595 39.4661 67.5087 39.6489 67.9687 40C68.5302 40.1792 68.7917 40.2057 69.3359 39.9707C69.7222 39.6595 69.8308 39.5233 70 39.0625C70.035 38.632 70.0519 38.2233 70.0488 37.793C70.0481 37.6696 70.0475 37.5462 70.0468 37.419C69.976 33.6166 68.7702 30.0842 66.0058 27.4023C59.9512 22.1704 51.0698 24.2437 45.9521 29.6075ZM33.4375 40.3125C31.7605 42.4975 31.3722 44.6603 31.5625 47.3437C31.8981 49.3212 33.0504 51.3144 34.6875 52.5C34.5772 53.1479 34.4664 53.7956 34.3554 54.4433C34.3211 54.6438 34.2869 54.8442 34.2515 55.0508C34.0574 56.1808 33.8564 57.3092 33.6456 58.4363C33.6241 58.5517 33.6026 58.6671 33.5805 58.7861C33.4089 59.7083 33.4089 59.7083 33.3249 60.1476C32.8344 62.0755 32.8344 62.0755 33.2617 63.8965C33.8272 64.4453 34.2973 64.3998 35.0481 64.4026C35.1657 64.4037 35.2834 64.4047 35.4046 64.4058C35.7948 64.4088 36.185 64.4107 36.5753 64.4122C36.7751 64.4132 36.7751 64.4132 36.9789 64.4141C37.6839 64.4174 38.3889 64.4196 39.0939 64.4211C39.8222 64.4228 40.5503 64.4282 41.2786 64.4344C41.8385 64.4385 42.3984 64.4398 42.9583 64.4404C43.2267 64.4411 43.4952 64.4429 43.7636 64.4458C44.1395 64.4496 44.5153 64.4495 44.8912 64.4484C45.0019 64.4504 45.1125 64.4524 45.2265 64.4545C45.9737 64.4466 46.3502 64.2783 46.875 63.75C47.4048 62.6904 46.8579 61.126 46.6442 60.0366C46.6048 59.8297 46.5655 59.6228 46.5264 59.4159C46.3609 58.5423 46.1928 57.6692 46.0232 56.7964C45.9191 56.2604 45.8171 55.724 45.7162 55.1873C45.6588 54.8848 45.5989 54.5827 45.5391 54.2806C45.5047 54.097 45.4702 53.9134 45.4348 53.7242C45.4035 53.5628 45.3723 53.4014 45.3401 53.2351C45.3094 52.7661 45.3665 52.5737 45.625 52.1875C45.8854 51.9271 46.1458 51.6667 46.4062 51.4062C47.9864 49.6489 48.6707 47.5765 48.5693 45.2118C48.2863 42.7441 47.1387 40.626 45.2301 39.0283C41.4596 36.3122 36.5438 36.917 33.4375 40.3125Z" fill="black"/>
<path d="M54.5496 4.95974C57.0658 7.03022 58.9376 9.48568 60.4688 12.3438C60.5386 12.4654 60.6085 12.5871 60.6805 12.7124C61.6749 14.5273 62.7922 17.2676 62.6562 19.375C61.9074 19.2886 61.1658 19.1817 60.4224 19.0564C60.255 19.0283 60.0877 19.0002 59.9153 18.9712C59.7886 18.9498 59.6618 18.9283 59.5312 18.9063C59.5016 18.8082 59.4719 18.7102 59.4413 18.6091C57.6495 12.7716 54.5883 8.32269 49.1553 5.33205C44.5026 2.90091 39.1483 2.4315 34.1504 3.97463C33.7547 4.10343 33.3619 4.23838 32.9688 4.37502C32.828 4.42296 32.6872 4.47089 32.5421 4.52028C27.6624 6.31932 23.9478 10.3897 21.7918 15.0094C21.2347 16.266 20.8557 17.5896 20.4688 18.9063C20.0652 18.9851 19.6616 19.0631 19.2578 19.1406C19.1438 19.163 19.0298 19.1854 18.9124 19.2084C18.376 19.3108 17.8919 19.375 17.3438 19.375C17.4157 18.2906 17.6043 17.3054 17.9297 16.2696C17.993 16.0648 17.993 16.0648 18.0576 15.856C19.6714 10.7316 23.1084 6.30749 27.6562 3.43752C27.749 3.37891 27.8418 3.32029 27.9374 3.25991C36.1795 -1.85241 46.9917 -1.02859 54.5496 4.95974Z" fill="black"/>
<path d="M43.9349 41.4532C45.0586 42.5045 45.6942 43.7686 45.8184 45.304C45.8588 47.0314 45.4702 48.5113 44.2761 49.8083C43.865 50.2301 43.473 50.6003 42.9882 50.9375C42.6171 51.2868 42.5598 51.4932 42.5031 51.9903C42.4961 52.7726 42.6777 53.5382 42.8265 54.303C42.8614 54.4903 42.8963 54.6777 42.9323 54.8707C43.0437 55.4675 43.1574 56.0638 43.2714 56.6602C43.3845 57.2577 43.4971 57.8552 43.6089 58.453C43.6785 58.8244 43.7489 59.1957 43.8202 59.5668C43.8679 59.8195 43.8679 59.8195 43.9165 60.0773C43.9448 60.2249 43.973 60.3726 44.0021 60.5247C44.0624 60.9375 44.0624 60.9375 44.0624 61.7188C41.3812 61.7188 38.6999 61.7188 35.9374 61.7188C36.1132 59.9615 36.1132 59.9615 36.2405 59.2909C36.2687 59.1408 36.2968 58.9906 36.3258 58.836C36.3558 58.6795 36.3857 58.523 36.4166 58.3618C36.4802 58.0223 36.5437 57.6827 36.6073 57.3431C36.7072 56.814 36.8074 56.285 36.9077 55.756C37.0051 55.2413 37.1015 54.7264 37.1978 54.2114C37.2281 54.0537 37.2584 53.896 37.2896 53.7335C37.5972 52.4201 37.5972 52.4201 37.2656 51.1816C36.8379 50.7433 36.3837 50.3498 35.9204 49.95C34.915 49.0567 34.2817 47.7694 34.187 46.4246C34.1596 44.5301 34.5242 43.1707 35.7812 41.7187C36.6195 40.9049 37.4611 40.4296 38.5937 40.1562C38.8112 40.0982 38.8112 40.0982 39.0332 40.0391C40.8654 39.8954 42.4928 40.2967 43.9349 41.4532Z" fill="black"/>
</g>
<defs>
<clipPath id="clip0_257_766">
<rect width="80" height="80" fill="white"/>
</clipPath>
</defs>
</svg>
