<svg width="168" height="193" viewBox="0 0 168 193" fill="none" xmlns="http://www.w3.org/2000/svg">
<g filter="url(#filter0_d_222_522)">
<circle cx="84" cy="54" r="54" fill="#FF5777"/>
</g>
<path d="M122.5 70L133 105L99 96.5L122.5 70Z" fill="#FF5777"/>
<path d="M59.0938 70.5098C59.0938 68.6152 59.084 66.8477 59.0645 65.207C59.0449 63.5664 59.0254 61.9648 59.0059 60.4023C58.9863 58.8398 58.957 57.2578 58.918 55.6562C58.8984 54.0352 58.8789 52.2969 58.8594 50.4414C58.8398 48.5664 58.8203 46.5156 58.8008 44.2891C58.7812 42.0625 58.7715 39.5527 58.7715 36.7598C58.7715 36.4082 58.791 36.0273 58.8301 35.6172C58.8887 35.1875 58.9961 34.7969 59.1523 34.4453C59.3281 34.0938 59.582 33.8008 59.9141 33.5664C60.2461 33.3125 60.6953 33.1855 61.2617 33.1855C61.5547 33.1855 61.8574 33.293 62.1699 33.5078C62.502 33.7227 62.8047 34.0059 63.0781 34.3574C63.3516 34.6895 63.5762 35.0605 63.752 35.4707C63.9473 35.8809 64.0449 36.291 64.0449 36.7012L64.1621 49.8848C64.1621 50.2559 64.3184 50.4414 64.6309 50.4414C67.9121 50.4414 70.6758 50.4512 72.9219 50.4707C75.1875 50.4707 77.0527 50.4707 78.5176 50.4707C79.9824 50.4707 81.1152 50.4707 81.916 50.4707C82.7168 50.4707 83.3125 50.4707 83.7031 50.4707C84.0938 50.4707 84.3379 50.4609 84.4355 50.4414C84.5527 50.4023 84.6406 50.3633 84.6992 50.3242C84.6602 48.0195 84.582 45.7441 84.4648 43.498C84.3672 41.2324 84.3184 38.9473 84.3184 36.6426C84.3184 36.1348 84.3574 35.6562 84.4355 35.207C84.5137 34.7383 84.6504 34.3379 84.8457 34.0059C85.041 33.6543 85.2949 33.3809 85.6074 33.1855C85.9395 32.9902 86.3496 32.8926 86.8379 32.8926C87.4629 32.8926 87.9609 33.0391 88.332 33.332C88.7031 33.625 88.9766 34.0059 89.1523 34.4746C89.3477 34.9238 89.4746 35.4414 89.5332 36.0273C89.5918 36.6133 89.6211 37.1992 89.6211 37.7852C89.6211 38.4492 89.6309 39.1914 89.6504 40.0117C89.6699 40.832 89.6992 41.75 89.7383 42.7656C89.7773 43.7812 89.8164 44.9043 89.8555 46.1348C89.9141 47.3652 89.9727 48.7227 90.0312 50.207C90.0898 50.3242 90.1582 50.4805 90.2363 50.6758C90.334 50.8711 90.4121 51.0859 90.4707 51.3203C90.5488 51.5547 90.6074 51.7891 90.6465 52.0234C90.7051 52.2578 90.7344 52.4629 90.7344 52.6387C90.7344 52.8145 90.7051 53.0391 90.6465 53.3125C90.6074 53.5664 90.5684 53.8105 90.5293 54.0449C90.4512 54.3184 90.3828 54.6016 90.3242 54.8945C90.4414 57.4727 90.5391 59.6602 90.6172 61.457C90.6953 63.2344 90.7539 64.7188 90.793 65.9102C90.832 67.1016 90.8613 68.0391 90.8809 68.7227C90.9004 69.3867 90.9102 69.8945 90.9102 70.2461C90.9102 71.0273 90.6562 71.7109 90.1484 72.2969C89.6406 72.8633 88.957 73.1465 88.0977 73.1465C87.1797 73.1465 86.4961 72.834 86.0469 72.209C85.5977 71.584 85.373 70.4512 85.373 68.8105L85.1973 55.627C85.0801 55.627 84.875 55.627 84.582 55.627C84.2891 55.627 83.8398 55.6367 83.2344 55.6562C82.6289 55.6562 81.8379 55.666 80.8613 55.6855C79.8848 55.6855 78.6543 55.6953 77.1699 55.7148C75.7051 55.7148 73.9473 55.7246 71.8965 55.7441C69.8652 55.7441 67.4824 55.7441 64.748 55.7441C64.6504 55.7441 64.543 55.8516 64.4258 56.0664C64.3281 56.2617 64.2793 56.4668 64.2793 56.6816C64.2793 58.8691 64.3574 61.1738 64.5137 63.5957C64.6699 66.0176 64.748 68.4102 64.748 70.7734C64.748 71.0469 64.6406 71.3105 64.4258 71.5645C64.2109 71.8184 63.9473 72.043 63.6348 72.2383C63.3418 72.4336 63.0195 72.5898 62.668 72.707C62.3164 72.8047 62.0039 72.8535 61.7305 72.8535C61.457 72.8535 61.1641 72.8047 60.8516 72.707C60.5586 72.6094 60.2754 72.4629 60.002 72.2676C59.748 72.0527 59.5332 71.8086 59.3574 71.5352C59.1816 71.2422 59.0938 70.9004 59.0938 70.5098ZM106.73 34.5625C106.398 34.5625 105.92 34.4844 105.295 34.3281C104.689 34.1523 104.084 33.8984 103.479 33.5664C102.893 33.2344 102.375 32.8145 101.926 32.3066C101.496 31.7988 101.281 31.2031 101.281 30.5195C101.281 30.1875 101.35 29.8457 101.486 29.4941C101.623 29.1426 101.809 28.8203 102.043 28.5273C102.297 28.2344 102.6 28 102.951 27.8242C103.303 27.6289 103.693 27.5312 104.123 27.5312C104.494 27.5312 104.953 27.6777 105.5 27.9707C106.066 28.2637 106.604 28.6445 107.111 29.1133C107.619 29.5625 108.059 30.0703 108.43 30.6367C108.801 31.1836 108.986 31.7207 108.986 32.248C108.986 32.3848 108.938 32.5801 108.84 32.834C108.762 33.0879 108.625 33.3418 108.43 33.5957C108.254 33.8496 108.02 34.0742 107.727 34.2695C107.453 34.4648 107.121 34.5625 106.73 34.5625ZM102.658 70.9199C102.619 70.7637 102.57 70.4609 102.512 70.0117C102.473 69.5625 102.424 68.8203 102.365 67.7852C102.326 66.75 102.287 65.3535 102.248 63.5957C102.229 61.8184 102.219 59.5332 102.219 56.7402C102.219 54.5527 102.346 52.3164 102.6 50.0312C102.873 47.7266 103.205 45.5488 103.596 43.498C103.615 43.3223 103.684 43.0879 103.801 42.7949C103.938 42.4824 104.113 42.1797 104.328 41.8867C104.562 41.5742 104.836 41.3105 105.148 41.0957C105.461 40.8613 105.822 40.7441 106.232 40.7441C106.662 40.7441 107.014 40.8223 107.287 40.9785C107.561 41.1152 107.766 41.3203 107.902 41.5938C108.059 41.8477 108.166 42.1504 108.225 42.502C108.283 42.834 108.312 43.1855 108.312 43.5566C108.312 44.5918 108.273 45.7344 108.195 46.9844C108.117 48.2148 108.029 49.4746 107.932 50.7637C107.854 52.0332 107.775 53.2832 107.697 54.5137C107.639 55.7441 107.609 56.8574 107.609 57.8535C107.609 58.7324 107.668 59.7285 107.785 60.8418C107.922 61.9551 108.068 63.0977 108.225 64.2695C108.4 65.4414 108.547 66.5938 108.664 67.7266C108.801 68.8398 108.869 69.8555 108.869 70.7734C108.869 71.7305 108.625 72.4727 108.137 73C107.648 73.5078 107.102 73.7617 106.496 73.7617C105.324 73.7617 104.445 73.5469 103.859 73.1172C103.273 72.707 102.873 71.9746 102.658 70.9199Z" fill="white"/>
<defs>
<filter id="filter0_d_222_522" x="0" y="0" width="168" height="193" filterUnits="userSpaceOnUse" color-interpolation-filters="sRGB">
<feFlood flood-opacity="0" result="BackgroundImageFix"/>
<feColorMatrix in="SourceAlpha" type="matrix" values="0 0 0 0 0 0 0 0 0 0 0 0 0 0 0 0 0 0 127 0" result="hardAlpha"/>
<feMorphology radius="30" operator="erode" in="SourceAlpha" result="effect1_dropShadow_222_522"/>
<feOffset dy="55"/>
<feGaussianBlur stdDeviation="30"/>
<feComposite in2="hardAlpha" operator="out"/>
<feColorMatrix type="matrix" values="0 0 0 0 1 0 0 0 0 0.341176 0 0 0 0 0.466667 0 0 0 1 0"/>
<feBlend mode="normal" in2="BackgroundImageFix" result="effect1_dropShadow_222_522"/>
<feBlend mode="normal" in="SourceGraphic" in2="effect1_dropShadow_222_522" result="shape"/>
</filter>
</defs>
</svg>
