<svg width="47" height="48" viewBox="0 0 47 48" fill="none" xmlns="http://www.w3.org/2000/svg">
<path d="M46.6367 20.8719C46.6367 36.2052 30.512 43.2819 18.9941 47.9998L18.9941 39.744C14.1066 39.744 9.41891 37.7557 5.96289 34.2166C2.50688 30.6775 0.565451 25.877 0.565429 20.8719C0.565429 20.408 0.583186 19.9458 0.61621 19.4862C0.297813 14.3982 1.6275 9.16724 4.61328 5.27425C9.83076 -1.52205 18.1765 -1.75051 23.6035 4.58968C29.0144 -1.74123 37.3761 -1.53111 42.5889 5.27425C45.5768 9.1786 46.9076 14.4099 46.5879 19.4959C46.6204 19.9523 46.6367 20.4113 46.6367 20.8719Z" fill="#FF5777"/>
<path d="M15 12V31H25" stroke="#F1F6F6" stroke-width="4" stroke-linecap="round" stroke-linejoin="round"/>
<path d="M31 31V12H41" stroke="#202020" stroke-width="4" stroke-linecap="round" stroke-linejoin="round"/>
</svg>
