<svg width="80" height="80" viewBox="0 0 80 80" fill="none" xmlns="http://www.w3.org/2000/svg">
<g clip-path="url(#clip0_257_759)">
<path d="M70 50V65C70 66.326 69.4732 67.5978 68.5355 68.5355C67.5979 69.4732 66.3261 70 65 70H15C13.6739 70 12.4021 69.4732 11.4645 68.5355C10.5268 67.5978 10 66.326 10 65V50C10 48.6739 10.5268 47.4021 11.4645 46.4644C12.4021 45.5267 13.6739 45 15 45H37.5V29.7468C34.4649 29.1273 31.7679 27.4029 29.932 24.9079C28.0961 22.4129 27.252 19.325 27.5633 16.243C27.8746 13.161 29.3193 10.3044 31.6171 8.227C33.915 6.14959 36.9023 4.99939 40 4.99939C43.0977 4.99939 46.085 6.14959 48.3829 8.227C50.6807 10.3044 52.1254 13.161 52.4367 16.243C52.748 19.325 51.9039 22.4129 50.068 24.9079C48.2321 27.4029 45.5351 29.1273 42.5 29.7468V45H65C66.3261 45 67.5979 45.5267 68.5355 46.4644C69.4732 47.4021 70 48.6739 70 50ZM50 37.5C50 38.163 50.2634 38.7989 50.7322 39.2677C51.2011 39.7366 51.837 40 52.5 40H62.5C63.163 40 63.7989 39.7366 64.2678 39.2677C64.7366 38.7989 65 38.163 65 37.5C65 36.8369 64.7366 36.201 64.2678 35.7322C63.7989 35.2634 63.163 35 62.5 35H52.5C51.837 35 51.2011 35.2634 50.7322 35.7322C50.2634 36.201 50 36.8369 50 37.5Z" fill="black"/>
</g>
<defs>
<clipPath id="clip0_257_759">
<rect width="80" height="80" fill="white"/>
</clipPath>
</defs>
</svg>
