<svg width="72" height="72" viewBox="0 0 72 72" fill="none" xmlns="http://www.w3.org/2000/svg">
<circle cx="36" cy="36" r="34.5" stroke="#F2B6B6" stroke-width="3"/>
<path d="M36.5479 52.4474C34.4173 52.4474 32.5103 52.0479 30.8271 51.2489C29.1438 50.4393 27.8068 49.3313 26.8161 47.9251C25.8359 46.5188 25.3139 44.9102 25.25 43.0991H31.0028C31.1094 44.4414 31.69 45.5387 32.7447 46.391C33.7994 47.2326 35.0671 47.6534 36.5479 47.6534C37.7092 47.6534 38.7425 47.3871 39.6481 46.8544C40.5536 46.3217 41.2674 45.5813 41.7894 44.6332C42.3114 43.685 42.5671 42.6037 42.5565 41.3892C42.5671 40.1534 42.3061 39.0561 41.7734 38.0973C41.2408 37.1385 40.511 36.3874 39.5842 35.8441C38.6573 35.2901 37.592 35.0131 36.3881 35.0131C35.408 35.0025 34.4439 35.1836 33.4957 35.5565C32.5476 35.9293 31.7965 36.4194 31.2425 37.0266L25.8892 36.1477L27.5991 19.2727H46.5835V24.2266H32.505L31.5621 32.9038H31.7539C32.3612 32.19 33.2188 31.5987 34.3267 31.13C35.4347 30.6506 36.6491 30.4109 37.9702 30.4109C39.9517 30.4109 41.7202 30.8796 43.2756 31.8171C44.831 32.744 46.0561 34.0224 46.951 35.6523C47.8459 37.2823 48.2933 39.1467 48.2933 41.2454C48.2933 43.408 47.7926 45.3363 46.7912 47.0302C45.8004 48.7134 44.4208 50.0398 42.6523 51.0092C40.8945 51.968 38.8597 52.4474 36.5479 52.4474Z" fill="#F2B6B6"/>
</svg>
