<svg width="72" height="72" viewBox="0 0 72 72" fill="none" xmlns="http://www.w3.org/2000/svg">
<circle cx="36" cy="36" r="34.5" stroke="#F2B6B6" stroke-width="3"/>
<path d="M24.9338 52V47.7173L36.2956 36.5792C37.3823 35.4819 38.2878 34.5071 39.0123 33.6548C39.7367 32.8026 40.28 31.9769 40.6422 31.1779C41.0044 30.3789 41.1855 29.5266 41.1855 28.6211C41.1855 27.5877 40.9512 26.7035 40.4824 25.9684C40.0137 25.2227 39.3691 24.6474 38.5488 24.2425C37.7285 23.8377 36.7963 23.6353 35.7523 23.6353C34.6763 23.6353 33.7335 23.859 32.9238 24.3065C32.1142 24.7433 31.4856 25.3665 31.0382 26.1761C30.6014 26.9858 30.383 27.9499 30.383 29.0685H24.742C24.742 26.9911 25.2161 25.1854 26.1642 23.6513C27.1124 22.1172 28.4174 20.9293 30.0794 20.0877C31.752 19.2461 33.6696 18.8253 35.8322 18.8253C38.0268 18.8253 39.9551 19.2354 41.617 20.0558C43.2789 20.8761 44.568 22 45.4842 23.4276C46.411 24.8551 46.8745 26.4851 46.8745 28.3175C46.8745 29.5426 46.6401 30.7464 46.1713 31.929C45.7026 33.1115 44.877 34.4219 43.6944 35.8601C42.5225 37.2983 40.8766 39.0401 38.7566 41.0856L33.1156 46.8224V47.0462H47.3699V52H24.9338Z" fill="#F2B6B6"/>
</svg>
