<svg width="72" height="72" viewBox="0 0 72 72" fill="none" xmlns="http://www.w3.org/2000/svg">
<circle cx="36" cy="36" r="34.5" stroke="#F2B6B6" stroke-width="3"/>
<path d="M34.998 53.4474C32.6969 53.4474 30.6514 53.0533 28.8616 52.2649C27.0825 51.4766 25.6763 50.3793 24.6429 48.973C23.6095 47.5668 23.0609 45.9421 22.9969 44.0991H29.0055C29.0587 44.9833 29.3517 45.7557 29.8844 46.4162C30.417 47.0661 31.1255 47.5721 32.0097 47.9343C32.894 48.2965 33.8847 48.4776 34.982 48.4776C36.1539 48.4776 37.1926 48.2752 38.0981 47.8704C39.0037 47.4549 39.7121 46.8796 40.2235 46.1445C40.7349 45.4094 40.9852 44.5625 40.9746 43.6037C40.9852 42.6129 40.7295 41.7393 40.2075 40.983C39.6855 40.2266 38.9291 39.6353 37.9383 39.2092C36.9582 38.783 35.7757 38.57 34.3908 38.57H31.4984V33.9996H34.3908C35.5307 33.9996 36.5268 33.8026 37.379 33.4084C38.242 33.0142 38.9185 32.4602 39.4085 31.7464C39.8986 31.022 40.1383 30.1857 40.1276 29.2376C40.1383 28.3107 39.9305 27.5064 39.5044 26.8246C39.0889 26.1321 38.4976 25.5941 37.7306 25.2106C36.9742 24.8271 36.0847 24.6353 35.0619 24.6353C34.0605 24.6353 33.1337 24.8164 32.2814 25.1786C31.4291 25.5408 30.742 26.0575 30.2199 26.7287C29.6979 27.3892 29.4209 28.1776 29.389 29.0938H23.6841C23.7267 27.2614 24.254 25.6527 25.2661 24.2678C26.2888 22.8722 27.6525 21.7855 29.357 21.0078C31.0616 20.2195 32.9739 19.8253 35.0939 19.8253C37.2778 19.8253 39.1741 20.2354 40.7828 21.0558C42.4021 21.8654 43.6539 22.9574 44.5381 24.3317C45.4224 25.706 45.8645 27.2241 45.8645 28.886C45.8751 30.729 45.3318 32.2738 44.2345 33.5202C43.1479 34.7667 41.7203 35.5817 39.9518 35.9652V36.2209C42.253 36.5405 44.0161 37.3928 45.2413 38.7777C46.4771 40.152 47.0896 41.8619 47.079 43.9073C47.079 45.7397 46.557 47.3803 45.5129 48.8292C44.4795 50.2674 43.052 51.3967 41.2302 52.217C39.4192 53.0373 37.3418 53.4474 34.998 53.4474Z" fill="#F2B6B6"/>
</svg>
